<svg width="80" height="120" viewBox="0 0 80 120" version="1.1" xmlns="http://www.w3.org/2000/svg"><g transform="matrix(1.47039,0,0,1.47039,0,35.0033)"><path d="M44.308,9.782C44.308,4.377 39.953,0 34.581,0C29.481,0 25.299,3.944 24.888,8.962C23.145,6.329 20.167,4.594 16.783,4.594C12.094,4.594 8.179,7.928 7.261,12.367C3.157,12.955 0,16.499 0,20.784C0,25.406 3,29 8.242,30L10,30L10,24.744L22.352,12.504L34,24.744L34,30L44.67,30C50.042,29.317 54.399,24.942 54.399,19.545C54.399,14.148 50.042,9.772 44.67,9.772C44.549,9.772 44.429,9.778 44.308,9.782ZM15,25L20,25L20,34L15,34L15,25Z" style="fill:white;"/></g></svg>
